<svg xmlns="http://www.w3.org/2000/svg" viewBox="0 0 688 308" style="enable-background:new 0 0 688 308" xml:space="preserve"><path fill="currentColor" d="M215.15 134.89c-.45 0-.9-.01-1.35-.02-5.95-.15-11.46-3.71-11.46-3.71s3.47-9.99 10.9-9.99c.46 0 .94.04 1.44.12 8.42 1.41 12.26 6.28 18.58 6.28 2.57 0 4.07-.67 7.03-2.26 2.81-1.46 5.85-3.58 8.31-8.36 3.94-7.7 6.38-21.48 13.95-40.18 11.07-28.77 23.31-37.59 34.39-44.74-1.18-.26-2.37-.54-3.56-.82l-.42-.13c-17.91-3.96-36.59-9.1-48.34-9.1-.38 0-.74 0-1.11.02-4.67.13-8.31.8-11.14 2.71-6.33 3.84-9.98 15.52-13.25 30.15-.41.07-.81.1-1.2.1-5.95 0-8.78-7.7-5.42-13.86 4.86-9.17 20.21-26.36 45.03-26.36 1.29 0 2.6.05 3.94.14 22.63 1.63 45.53 3.86 66.46 3.86 2.57 0 5.11-.03 7.61-.11 9.2-.27 13-3.33 13.96-3.35h.12c.19 0 .29.03.32.27.27 2.52-3.6 11.33-8.38 15.55-2.9 2.47-6.93 4.69-15.16 4.93-.49.02-.98.02-1.49.02-6.71 0-14.87-1.24-23.56-3.05-6.8 4.89-10.96 19.87-18.65 43.07-8.62 26.34-33.72 58.82-67.55 58.82M376.15 134.08c-1.69 0-3.5-.31-5.16-1.24-4.78-2.65-8.09-6.32-8.9-10.95-1.15-5.75 4.51-17.4 8.83-25.83 9.76-18.81 8-23.71 2.41-26.8-7.55 2.67-22.08 19.65-34.76 42.95-3.79 7.15-6.91 14.73-9.16 19.65-1.88 1.12-4.11 1.96-7.68 1.96-5.04 0-10.71-1.82-9.57-7.15 12.36-28.5 23.09-51.14 27.56-61.8 10.07-24 33.28-47.89 72.87-56.27 1.69-.36 3.57-.54 5.4-.54 4.8 0 9.34 1.27 9.78 4.01.84 5.21-7.22 11.46-7.22 11.46s-11.12-3.72-22.48-3.72c-6.96 0-14.01 1.39-18.64 5.89-14.31 13.89-19.18 36.44-35.56 69.29 13.15-22.32 27.6-33.87 42.07-34.29 11.78 3.64 15.58 14.31 3.47 37.47-4.77 9.13-9.09 17.55-7.88 22.74.57 2.39 1.02 3.37 4.18 4.33 4.56-1.33 11.1-7.15 15.96-12.14l2.85 2.61c-4.89 4.71-11.43 12.15-21.82 17.03-.66.25-3.39 1.34-6.55 1.34M444.28 134.63c-1.18 0-2.4-.05-3.67-.14-8.88-.65-16.38-6.39-19.66-13.93-3.48-7.98-1.62-17.75.99-23.46 4.25-9.28 23.34-35.18 48.27-37.04 13.25 3.1 27.47 18.69 1.18 33.31-4.54 2.67-27.49 12.06-33.44 14.9-.94 7.6 7.02 16.88 18.04 16.88 3.19 0 6.63-.78 10.19-2.6 3.79-1.94 7.34-4.19 11.9-9.46l2.91 2.36c-5.66 6.46-10.48 10.33-17.36 13.94-6.88 3.6-12.44 5.24-19.35 5.24m19.32-68.9c-3.15.12-21.13 9.72-26.07 38.15 22.66-8.99 26.93-13.83 29.6-19.86 4.86-10.93.65-16.39-3.53-18.29M39.06 228.8v-25.27h28.1c9.67 0 14.95 5.4 14.95 12.71 0 7.3-5.28 12.56-14.95 12.56h-28.1zm47.01 29.36c-6.75-7.37-16.96-9.01-22.92-9.29l5.4-.05c24.17 0 36.84-12.13 36.84-32.58 0-20.45-14.66-32.88-37.32-32.88H15.79v107.39h23.27v-41.93h15.11l30.36 41.93h27.2l-25.66-32.59zM209.63 292.94c-32.78 0-58.92-23.08-58.92-56.25 0-33.31 26.14-56.25 58.92-56.25s58.93 22.94 58.93 56.25c0 33.17-26.14 56.25-58.93 56.25m0-92.34c-21.6 0-35.65 14.9-35.65 36.09 0 21.04 14.05 36.09 35.65 36.09 21.61 0 35.66-15.05 35.66-36.09 0-21.19-14.05-36.09-35.66-36.09M365.26 290.75h-23.27v-43.54l-43.51-63.85h26.89s18.56 28.38 20.53 31.18c7.87 11.21 7.73 29.89 7.73 29.89s.72-19.2 7.63-29.45c1.73-2.56 21.07-31.62 21.07-31.62h26.74l-43.81 63.56v43.83zM497.16 292.94c-33.99 0-58.17-23.38-58.17-56.4 0-33.9 25.68-56.1 58.17-56.1 21.91 0 41.7 10.08 50.76 28.79l-19.03 12.13c-4.23-12.13-16.17-20.76-32.03-20.76-20.55 0-34.6 14.32-34.6 36.09 0 21.19 13.45 36.09 34.3 36.09 15.41 0 28.86-8.04 32.93-21.19l19.19 12.13c-9.97 18.85-28.71 29.22-51.52 29.22M593.25 183.36v107.39h77.95v-20.17h-54.69v-23.66h50.31v-19.87h-50.31v-23.52h54.39v-20.17z"/></svg>
